<svg width="512" height="291" viewBox="0 0 512 291" fill="none" xmlns="http://www.w3.org/2000/svg">
<path d="M0 286.216C0.61244 262.069 3.98086 238.355 12.8612 215.798C22.201 192.085 26.9474 167.649 32.6124 143.212C43.177 98.6771 61.244 57.3232 95.2345 23.7773C123.56 -4.41854 157.856 -22.6374 198.737 -28.2766C228.593 -32.4698 258.297 -30.8793 287.235 -22.2036C290.297 -21.3361 293.359 -20.4685 296.574 -21.0469C324.9 -25.5293 351.694 -20.7577 377.723 -10.2023C409.569 2.66657 437.589 20.5963 461.014 44.7435C478.928 63.2515 493.168 84.3623 501.435 108.076C510.928 135.259 515.062 163.022 509.244 191.651C507.866 198.447 508.479 205.821 506.335 212.039C503.732 219.702 502.66 227.655 500.057 235.174C495.464 248.043 493.933 261.49 490.871 274.504C486.89 290.987 480.306 306.604 472.498 321.786C461.627 342.752 448 362.272 430.392 378.611C414.775 393.071 398.546 407.241 379.101 417.796C365.168 425.46 351.847 434.136 337.455 440.932C290.756 463.054 241.608 474.622 189.091 471.585C148.517 469.272 111.311 457.56 78.3924 434.714C32.4593 402.903 7.19617 359.814 1.5311 306.314C0.76555 299.663 0.45933 292.867 0 286.216ZM73.7991 61.3718C71.6555 61.3718 70.89 63.1069 70.1244 64.4083C62.3158 76.988 55.2727 89.8569 50.5263 103.738C48.9952 108.51 44.4019 112.558 45.6268 118.342C48.5359 116.896 49.9139 114.872 50.067 112.124C50.3732 107.353 52.823 103.304 54.9665 99.1109C61.244 86.5312 67.3684 73.8069 73.6459 61.2272C82.5263 50.2381 91.4067 39.2489 100.287 28.1152C94.1627 33.1759 88.3445 38.3813 83.7512 44.8881C80.0766 50.2381 74.7177 54.5759 73.7991 61.3718ZM245.129 10.6193C231.196 12.7882 220.478 16.9814 211.139 24.0665C201.646 31.2962 195.981 41.1286 189.703 50.8164C181.282 64.2637 175.464 78.7231 171.024 93.3271C167.043 106.196 164.287 119.788 162.756 133.38C158.928 165.624 158.316 197.58 168.115 229.101C178.373 262.069 195.215 290.987 222.775 313.833C267.636 350.849 323.215 357.212 375.732 334.944C379.101 333.498 382.316 331.763 384.306 328.582C397.168 308.049 406.354 286.071 412.019 263.081C419.828 231.993 420.9 200.182 416.459 168.372C410.029 122.824 392.727 81.7596 359.196 47.9246C341.895 30.2841 322.909 14.3787 296.574 9.60709C288.766 8.16115 280.038 5.41386 273.608 11.4868C266.718 18.2827 260.134 25.8016 255.388 34.0435C235.636 69.1799 231.502 106.196 243.598 144.369C248.191 159.262 258.144 170.685 272.077 179.071C274.679 180.662 280.191 181.674 278.354 185.434C276.67 188.615 271.617 187.747 267.943 186.735C266.565 186.301 265.187 185.723 263.962 185C248.345 175.89 235.636 164.034 228.593 147.839C213.742 113.426 215.426 78.4339 226.909 43.5867C230.737 32.1638 237.014 21.8976 245.129 10.6193ZM155.1 58.4799C153.416 59.0583 152.498 59.3475 151.885 59.7813C132.44 74.9637 115.445 92.1704 99.3684 110.245C86.9665 124.126 76.555 139.308 66.9091 154.924C60.3254 165.624 54.0479 176.613 52.6699 189.193C49.1483 219.992 49.7608 250.646 56.3445 281.155C65.6842 324.678 82.9857 364.441 116.057 396.975C132.9 413.603 152.957 425.46 175.923 432.111C213.282 442.811 248.345 433.846 282.029 418.519C303.923 408.687 323.062 394.806 340.976 379.624C349.091 372.683 356.9 365.02 363.33 355.043C351.847 356.344 341.895 358.657 331.636 359.67C296.88 363.14 264.115 356.489 233.646 341.162C192.153 320.34 164.287 287.951 148.517 246.308C128.612 193.386 129.99 139.886 145.608 86.0974C148.211 77.1326 151.732 68.1677 155.1 58.4799ZM457.493 304.001C454.124 303.856 452.287 305.013 450.909 306.604C443.713 314.99 434.526 320.774 425.034 326.558C419.522 329.883 414.01 333.209 408.498 336.39C399.464 341.595 394.565 350.416 388.134 357.935C369.148 380.491 347.254 400.156 321.378 415.772C290.45 434.425 257.684 446.571 220.478 448.017C200.574 448.884 181.742 447.149 162.756 441.51C131.981 432.4 107.177 415.338 86.0479 393.215C54.5072 360.103 38.2775 320.051 29.3971 276.962C28.7847 273.636 27.7129 270.455 26.7943 267.274C24.3445 275.371 24.8038 283.179 24.6507 290.987C24.0383 323.666 33.2249 354.464 50.3732 382.082C67.0622 408.976 91.2536 429.798 122.029 443.1C149.742 455.102 178.833 460.886 209.301 459.44C242.833 457.849 274.679 449.607 305.301 436.883C357.206 415.194 402.22 385.118 435.751 341.162C444.325 329.594 451.828 317.593 457.493 304.001ZM340.057 12.6436C344.498 18.4273 351.235 21.4638 356.746 25.8016C388.44 51.3948 410.029 83.2055 424.268 120.077C438.354 156.37 441.11 193.82 438.048 231.848C436.211 255.562 429.933 278.841 420.9 301.109C420.134 302.844 417.837 305.013 420.593 306.604C422.737 307.905 423.809 305.302 425.187 304.145C439.579 292.578 451.062 278.697 460.402 263.37C468.976 249.344 476.325 235.174 475.254 217.678C470.66 139.742 436.517 76.8434 370.373 29.8503C360.88 23.199 350.928 17.126 340.057 12.6436ZM488.574 159.551C488.115 115.161 472.957 76.1204 438.813 44.7435C408.498 16.8368 374.507 -4.56313 330.871 -8.46718C408.957 26.38 461.474 82.1934 488.574 159.551ZM76.8613 103.16C77.7799 102.147 78.8517 101.135 79.6172 100.123C98.4498 78.8677 119.426 59.7813 142.239 42.43C155.101 32.5976 170.412 25.9462 182.813 15.9692C196.746 4.98008 210.526 -5.4307 227.522 -11.5037C227.675 -11.5037 227.522 -12.2266 227.522 -13.2388C192.306 -10.4915 161.378 2.2328 134.737 23.4881C108.249 44.7435 86.201 69.7583 76.8613 103.16ZM410.335 283.613C413.703 277.251 416.612 270.166 416.153 262.502C414.163 269.443 412.172 276.528 410.335 283.613ZM404.67 302.989C404.057 302.699 403.598 302.41 402.986 301.977C400.536 307.182 398.086 312.243 395.636 317.448C399.311 312.966 403.292 308.483 404.67 302.989Z" fill="#FCE5E7" fill-opacity="0.6"/>
</svg>
