<svg width="533" height="291" viewBox="0 0 533 291" fill="none" xmlns="http://www.w3.org/2000/svg">
<path d="M527.807 221.699C521.472 244.85 512.578 266.807 498.636 286.094C483.974 306.369 473.578 328.636 462.294 350.644C441.497 390.686 414.21 425.543 373.399 448.372C339.333 467.629 301.872 475.568 261.043 469.501C231.207 465.142 202.894 455.24 177.006 438.709C174.254 437.009 171.502 435.308 168.259 434.961C139.833 431.313 115.086 419.158 92.4551 401.631C64.7541 380.231 41.9541 355.021 25.0696 325.098C12.1681 302.175 3.435 277.773 1.08877 252.539C-1.61528 223.608 0.994546 195.628 13.4237 169.612C16.3711 163.436 17.5334 156.141 21.0827 150.739C25.4195 144.069 28.3462 136.69 32.6487 130.16C40.1462 119.023 44.8234 106.465 50.8764 94.7578C58.6421 79.9569 68.7156 66.7272 79.8691 54.2614C95.3561 37.0715 113.161 22.0543 134.055 11.2311C152.579 1.66302 171.626 -7.45332 192.919 -12.1724C208.2 -15.6505 223.13 -20.2788 238.648 -22.7895C289.017 -31.006 339.242 -28.3367 389.247 -10.6123C427.889 3.05006 461.041 24.8421 487.404 56.1811C524.206 99.8449 538.36 148.581 531.108 201.854C530.266 208.494 528.945 215.145 527.807 221.699ZM403.046 418.096C405.116 418.699 406.268 417.239 407.317 416.198C417.852 406.246 427.716 395.799 435.602 383.728C438.216 379.55 443.615 376.933 443.808 371.002C440.654 371.579 438.841 373.146 438.04 375.757C436.609 380.279 433.28 383.5 430.212 386.947C421.157 397.33 412.215 407.896 403.159 418.279C391.968 426.392 380.776 434.506 369.551 442.759C376.67 439.595 383.528 436.206 389.512 431.215C394.334 427.082 400.542 424.401 403.046 418.096ZM225.483 418.864C239.457 420.693 250.807 419.661 261.513 415.448C272.402 411.138 280.213 403.237 288.58 395.647C299.913 385.03 308.972 372.702 316.734 359.846C323.64 348.537 329.535 336.184 334.246 323.487C345.613 293.419 353.804 262.725 351.836 229.518C349.768 194.784 340.378 162.107 319.191 132.278C284.662 83.8875 232.49 62.0883 176.467 68.8057C172.869 69.2537 169.351 70.0241 166.672 72.5362C149.365 88.7466 135.265 107.389 124.324 128C109.388 155.829 100.787 186.254 97.51 218.232C92.8887 264.038 99.8338 308.576 124.175 350.703C136.691 372.615 151.247 393.326 175.55 405.352C182.748 408.948 190.525 414.06 198.181 410.005C206.452 405.381 214.6 399.973 221.145 393.348C248.58 364.972 261.377 330.382 258.772 290.103C257.878 274.423 250.982 260.587 239.518 248.562C237.382 246.292 232.299 243.762 234.968 240.648C237.351 238.05 242.025 240.311 245.334 242.324C246.562 243.131 247.755 244.078 248.766 245.121C261.685 258.318 271.14 273.35 274.091 290.977C280.252 328.401 270.303 361.726 250.923 392.151C244.509 402.107 236.003 410.255 225.483 418.864ZM323.827 397.991C325.591 397.906 326.547 397.886 327.242 397.639C349.635 388.451 370.144 376.617 389.972 363.687C405.252 353.772 418.92 342.039 431.951 329.672C440.856 321.19 449.533 312.344 453.856 300.581C464.583 271.824 471.282 242.042 472.179 210.717C473.509 166.047 466.254 122.766 442.047 82.0258C429.733 61.2205 413.179 44.1186 392.577 31.2254C359.036 10.3679 323.037 9.15203 286.855 14.4696C263.368 17.8003 241.58 25.8179 220.665 35.4376C211.176 39.856 201.811 45.0591 193.227 52.885C204.628 54.8622 214.791 55.4306 224.941 57.3422C259.338 63.7792 289.405 79.4323 315.19 102.819C350.317 134.617 369.53 173.751 374.859 218.417C381.498 275.141 367.443 326.43 339.565 373.988C334.918 381.914 329.385 389.582 323.827 397.991ZM90.1326 75.6666C93.3519 76.755 95.4017 76.1551 97.1111 75.0069C106.057 68.933 116.306 65.9337 126.851 63.0207C132.966 61.3608 139.081 59.7009 145.162 58.1807C155.126 55.6969 161.956 48.5571 169.956 43.1056C193.659 26.6648 219.485 13.8367 248.193 6.04052C282.504 -3.26561 317.042 -5.76923 353.324 3.3131C372.756 8.08114 390.534 15.0613 407.532 25.8557C435.092 43.3225 454.992 66.7893 470.14 94.1094C492.73 134.977 498.881 178.236 497.21 222.358C497.011 225.742 497.29 229.117 497.42 232.448C501.713 225.317 503.126 217.646 505.131 210.147C513.495 178.754 511.946 146.418 501.951 114.912C492.227 84.233 473.812 57.3074 447.249 35.7902C423.335 16.3924 396.611 2.61231 366.837 -4.57258C334.07 -12.4803 301.348 -13.4889 268.743 -9.82289C213.449 -3.49165 162.815 12.8808 119.972 45.8956C108.938 54.6541 98.8374 64.1335 90.1326 75.6666ZM134.27 390.172C131.357 383.335 125.572 378.504 121.28 372.762C96.7528 339.114 83.4657 302.307 78.4812 262.681C73.5069 223.657 79.7519 186.707 91.7544 150.837C99.1691 128.449 110.77 107.731 124.791 88.7665C125.943 87.3061 128.678 85.8579 126.394 83.5454C124.633 81.6846 122.979 83.8968 121.372 84.626C104.719 91.7458 90.3259 101.92 77.659 114.094C66.0412 125.227 55.5721 136.844 52.4462 154.046C38.3467 230.62 56.3671 300.992 109.08 365.013C116.668 374.111 124.836 382.78 134.27 390.172ZM25.7546 206.44C15.6406 249.447 20.9966 291.427 46.5141 331.351C69.1596 366.845 96.9021 397.09 138.123 413.151C70.9857 357.498 33.533 288.795 25.7546 206.44ZM410.027 376.869C408.899 377.588 407.623 378.264 406.642 379.026C383.396 394.253 358.595 406.781 332.433 417.116C317.671 422.991 301.3 425.103 286.948 431.247C270.876 437.938 255.089 444.113 237.229 445.192C237.081 445.149 237.057 445.89 236.816 446.868C271.485 454.133 304.385 450.553 335.174 437.525C365.815 424.455 393.061 406.502 410.027 376.869ZM130.835 108.642C126.068 113.838 121.573 119.863 120.194 127.394C123.767 121.251 127.375 114.968 130.835 108.642ZM140.915 91.5219C141.438 91.9737 141.813 92.3824 142.301 92.9739C145.905 88.6359 149.475 84.4375 153.08 80.0994C148.464 83.3942 143.553 86.6027 140.915 91.5219Z" fill="#F5F8FF"/>
</svg>
